<svg width="1920" height="1080" viewBox="0 0 1920 1080" fill="none" xmlns="http://www.w3.org/2000/svg">
<g clip-path="url(#clip0_37_2287)">
<rect width="1920" height="1080" fill="#FAF2A3"/>
<path d="M453.823 31.9157C453.816 31.714 443.786 32.0839 428.888 31.8014C412.769 31.4988 394.295 30.49 394.308 29.9722C394.322 29.1383 441.787 29.9184 543.557 29.9722C572.704 29.9857 601.843 30.1067 630.99 30.0865C684.74 30.0462 716.722 29.8243 716.755 31.0011C716.803 32.5344 662.533 34.7066 662.58 36.3811C662.634 38.2036 727.022 38.2103 780.806 38.2103C809.723 38.2103 825.376 38.0826 825.383 38.5533C825.403 39.3267 783.02 41.176 746.908 42.2184C710.181 43.2742 685.557 43.3415 685.557 43.7046C685.557 44.3771 768.845 44.2359 768.852 45.3052C768.859 46.2534 703.276 48.123 633.852 48.856C534.343 49.9051 459.803 48.2844 459.79 48.9703C459.776 49.6966 542.632 50.9004 542.626 52.1781C542.619 53.7518 416.853 53.9333 298.019 51.6065C298.019 51.6065 232.868 50.3287 232.875 48.977C232.882 48.2306 255.609 47.5782 326.167 44.7403C345.789 43.9535 358.898 43.402 358.911 42.4538C358.938 40.369 296.494 38.6542 296.521 37.1881C296.548 36.0113 337.014 36.6031 400.957 34.4376C430.657 33.4289 453.836 32.2251 453.823 31.9157Z" fill="#FDFADA"/>
<path d="M250.426 66.3348C250.426 65.3327 304.439 64.4114 312.296 64.2769C324.149 64.0751 354.862 63.6179 409.841 64.1021C458.42 64.5325 482.707 64.7544 482.741 65.9918C482.788 67.552 445.622 70.1545 413.803 71.1431C377.258 72.2729 345.216 71.3516 345.209 70.8001C345.209 70.3428 367.437 70.1545 367.444 69.5964C367.444 68.3186 250.426 67.8075 250.426 66.3348Z" fill="#FDFADA"/>
<path d="M1302.41 360.459C1360.76 360.459 1408.05 315.145 1408.05 259.248C1408.05 203.351 1360.76 158.037 1302.41 158.037C1244.07 158.037 1196.78 203.351 1196.78 259.248C1196.78 315.145 1244.07 360.459 1302.41 360.459Z" fill="#FDFADA"/>
<path d="M-78.0121 432.753V571.287L-86.082 776.063L1941.16 782.115L1927.71 192.671L1828.18 272.698L1728.65 212.173L1650.64 235.711L1560.87 192.671L1299.26 272.698L1192 192.671L1088.77 163.417L963.688 102.892L751.178 192.671L674.85 163.417L573.639 212.173L429.052 272.698L339.273 360.459L247.813 335.24L210.49 258.912L99.5275 296.235L1.679 335.24L-78.0121 432.753Z" fill="#E8A788"/>
<path d="M1.06296e-05 260.74C0.015098 259.829 18.8404 259.467 26.4822 259.327C55.5443 258.8 73.4002 258.475 73.5737 260.268C73.7472 262.06 56.2534 265.873 39.099 266.766C22.7971 267.614 8.55078 265.737 8.56964 265.069C8.59227 264.354 25.0149 264.557 25.0376 263.753C25.064 262.753 -0.0188486 261.791 1.06296e-05 260.74Z" fill="#FDFADA"/>
<path fill-rule="evenodd" clip-rule="evenodd" d="M803.536 223.27H807.613V224.97C809.989 224.277 815.558 224.221 820.859 229.129C827.739 235.499 834.873 239.321 838.95 237.792V261.399C834.873 262.927 827.739 259.106 820.859 252.736C815.558 247.827 809.989 247.883 807.613 248.577V300.728H809.652V301.238H841.755V300.728H845.833V282.383H849.909V300.728H853.986V301.238H854.508C854.505 301.163 854.503 301.087 854.501 301.012C854.499 300.917 854.497 300.823 854.497 300.728C854.497 297.223 856.063 294.063 858.573 291.833V278.56V278.306H858.574C858.647 271.393 861.686 265.657 865.707 264.327V245.692H869.784V264.521C873.55 266.148 876.338 271.688 876.407 278.306H876.409V278.56V291.831C878.92 294.061 880.487 297.222 880.487 300.728C880.487 300.899 880.483 301.069 880.476 301.238H880.993V300.728H887.11V282.383H891.187V300.728H893.224V301.238L927.368 301.238V300.728H927.877V223.27H931.954V300.728H939.599V310.41L938.07 310.41V334.871L952.848 334.871V333.852H956.924V334.871H970.682V331.304H973.741V328.246H970.682V326.717H973.741V323.66H970.682V322.131H973.741V320.602H970.682V319.073H973.741V315.506H976.289V319.073H979.346V320.602H976.289V322.131H979.346V323.66H976.289V326.717H979.346V328.246H976.289V331.304H979.346V334.871H996.163V333.852H1000.24V334.871H1006.86V331.304H1009.92V328.246H1006.86V326.717H1009.92V323.659H1006.86V322.13H1009.92V320.601H1006.86V319.073H1009.92V315.505H1012.47V319.073H1015.53V320.601H1012.47V322.13H1015.53V323.659H1012.47V326.717H1015.53V328.246H1012.47V331.304H1015.53V334.871H1037.95V333.852H1042.03V334.871H1052.73V331.304H1055.79V328.246H1052.73V326.717H1055.79V323.66H1052.73V322.131H1055.79V320.602H1052.73V319.073H1055.79V315.506H1058.33V319.073H1061.39V320.602H1058.33V322.131H1061.39V323.66H1058.33V326.717H1061.39V328.246H1058.33V331.304H1061.39V334.871H1081.27V333.852H1085.34V334.871H1094.01V331.304H1097.06V328.246H1094.01V326.717H1097.06V323.66H1094.01V322.131H1097.06V320.602H1094.01V319.073H1097.06V315.506H1099.61V319.073H1102.67V320.602H1099.61V322.131H1102.67V323.66H1099.61V326.717H1102.67V328.246H1099.61V331.304H1102.67V334.871L1124.58 334.871V333.852H1128.66V334.871H1139.87V331.304H1142.93V328.246H1139.87V326.717H1142.93V323.66H1139.87V322.131H1142.93V320.602H1139.87V319.073H1142.93V315.506H1145.47V319.073H1148.53V320.602H1145.47V322.131H1148.53V323.66H1145.47V326.717H1148.53V328.246H1145.47V331.304H1148.53V334.871H1181.15V331.304H1184.2V328.246H1181.15V326.717H1184.2V323.659H1181.15V322.131H1184.2V320.602H1181.15V319.073H1184.2V315.506H1186.75V319.073H1189.81V320.602H1186.75V322.131H1189.81V323.659H1186.75V326.717H1189.81V328.246H1186.75V331.304H1189.81V332.068H1231.59V331.049H1254.75L1257.59 320.857L1251.73 318.818L1262.94 310.92L1272.87 318.818L1268.29 320.857L1269.51 331.049H1290.71V332.068H1316.7V331.049H1342.18V349.394H1340.65V349.649H1348.29V354.745L1343.71 354.745V359.841H1340.65V365.446H1348.29V370.542L1343.71 370.542V375.638H1340.65V471.443H1347.79V504.057L1347.78 504.056V551.449H386.688V504.056H390.256V471.443H396.88V375.638H391.784V370.542H387.198V365.446H396.88V359.841H391.784V354.745L387.198 354.745V349.649H393.313L393.313 331.304H418.793V332.322H444.783V331.304H465.98L467.203 321.112L462.617 319.073L472.554 311.175L483.765 319.073L477.905 321.112L480.736 331.304H503.896V332.322H545.683V331.305H548.741V328.246H545.683V326.717H548.741V323.66H545.683V322.131H548.741V320.602H545.683V319.074H548.741V315.506H551.289V319.074H554.346V320.602H551.289V322.131H554.346V323.66H551.289V326.717H554.346V328.246H551.289V331.305H554.346V334.871H566.065V333.852H570.142V334.871H581.863V331.304H584.921V328.246H581.863V326.717H584.921V323.66H581.863V322.131H584.921V320.602H581.863V319.073H584.921V315.506H587.469V319.073H590.526V320.602H587.469V322.131H590.526V323.66H587.469V326.717H590.526V328.246H587.469V331.304H590.526V334.871H608.361V333.852H612.438V334.871H627.725V331.305H630.783V328.247H627.725V326.718H630.783V323.66H627.725V322.131H630.783V320.602H627.725V319.074H630.783V315.506H633.331V319.074H636.388V320.602H633.331V322.131H636.388V323.66H633.331V326.718H636.388V328.247H633.331V331.305H636.388V334.871H651.676V333.852H655.753V334.871H669.002V331.304H672.061V328.246H669.002V326.717H672.061V323.659H669.002V322.13H672.061V320.602H669.002V319.073H672.061V315.506H674.609V319.073H677.665V320.602H674.609V322.13H677.665V323.659H674.609V326.717H677.665V328.246H674.609V331.304H677.665V334.871H693.464V333.852H697.541V334.871H714.865V331.304H717.922V328.245H714.865V326.716H717.922V323.659H714.865V322.131H717.922V320.601H714.865V319.073H717.922V315.505H720.47V319.073H723.529V320.601H720.47V322.131H723.529V323.659H720.47V326.716H723.529V328.245H720.47V331.304H723.529V334.871H736.779V333.852H740.856V334.871H756.143V331.304H759.2V328.246H756.143V326.717H759.2V323.659H756.143V322.13H759.2V320.601H756.143V319.073H759.2V315.505H761.748V319.073H764.806V320.601H761.748V322.13H764.806V323.659H761.748V326.717H764.806V328.246H761.748V331.304H764.806V334.871H780.096V333.852H784.173V334.871L797.421 334.871V310.41V302.767H797.421V301.238H797.421V300.728H803.536V223.27ZM1189.81 347.102V333.596H1231.59V347.102L1189.81 347.102ZM1290.71 347.101V333.596H1316.7V347.101L1290.71 347.101ZM418.793 347.101H444.783V333.851H418.793V347.101ZM503.896 347.101H545.683V333.851H503.896V347.101ZM554.346 347.101H581.863V336.399H570.142V347.101H566.065V336.399H554.346V347.101ZM590.526 347.101H627.725V336.399H612.438V347.101H608.361V336.399H590.526V347.101ZM797.421 347.101V336.399L784.173 336.399V347.101H780.096V336.399H764.806V347.101H756.143V336.399H740.856V347.101H736.779V336.399H723.529V347.101H714.865V336.399H697.541V347.101H693.464V336.399H677.665V347.101H669.002V336.399H655.753V347.101H651.676V336.399H636.388V347.101H797.421ZM970.682 347.101V336.399H956.924V347.101H952.848V336.399L938.07 336.399V347.101H970.682ZM979.346 347.101H1052.73V336.399H1042.03V347.101H1037.95V336.399H1015.53V347.101H1006.86V336.399H1000.24V347.101H996.163V336.399H979.346V347.101ZM1061.39 347.101L1094.01 347.101V336.399H1085.34V347.101H1081.27V336.399H1061.39V347.101ZM1102.67 347.101L1139.87 347.101V336.399H1128.66V347.101H1124.58V336.399L1102.67 336.399V347.101ZM1148.53 347.101L1181.15 347.102V336.399H1148.53V347.101ZM893.224 302.767L927.368 302.767V310.41H893.224V302.767ZM880.993 302.767V310.41L875.432 310.41C877.965 308.568 879.755 305.865 880.307 302.767H880.993ZM809.652 302.767H841.755V310.41H809.652V302.767ZM859.552 310.41L853.986 310.41V302.767H854.677C855.229 305.865 857.019 308.568 859.552 310.41ZM519.691 347.101V333.852H515.614V347.101H519.691ZM434.08 333.852V347.101H430.003L430.003 333.852H434.08ZM1215.8 333.597V346.846H1219.88V333.597H1215.8ZM1301.41 346.846V333.597H1305.49V346.846H1301.41Z" fill="#CB589D"/>
<rect width="2330.21" height="765.976" transform="matrix(1 0 0 -1 -209.148 1316.08)" fill="#CB589D"/>
<path fill-rule="evenodd" clip-rule="evenodd" d="M179.191 537.999H103.027C102.343 451.497 103.894 263.991 115.569 205.978L172.122 168.125L179.191 537.999ZM203.135 189.332V537.999H273.37V189.332H203.135ZM299.822 216.012V537.999H360.479C360.479 437.131 359.887 233.844 357.515 227.642C355.143 221.439 340.412 220.041 333.343 220.117V227.642H329.923V211.223H318.749C314.553 211.223 304.383 214.416 299.822 216.012ZM255.81 207.119H221.605V222.169H255.81V207.119Z" fill="#CB589D"/>
<path d="M1611.67 544.555V554.112L1767.03 561.447V551.223L1764.81 539.443L1757.48 526.774H1715.47V512.104H1708.13L1703.02 294.953V289.174L1695.69 294.953V512.104H1689.02L1683.24 526.774H1647.9V535.664L1622.79 539.443L1611.67 544.555Z" fill="#CB589D"/>
<path d="M1598.56 318.513L1496.98 553.446H1598.56L1674.35 348.074L1662.57 318.513H1598.56Z" fill="#CB589D"/>
<path d="M1807.04 318.513L1908.62 553.446H1807.04L1731.25 348.074L1743.03 318.513H1807.04Z" fill="#CB589D"/>
<path d="M1090.79 59.9895C1090.8 59.438 1112.86 59.0883 1156.97 58.389C1194.74 57.7904 1213.62 57.4878 1228.43 57.703C1264.5 58.2208 1297.29 60.1105 1314.83 61.1395C1331.34 62.1079 1332.87 62.3769 1345.4 62.9687C1384.38 64.818 1411.34 64.1993 1411.34 64.3406C1411.34 64.5423 1358.21 65.9613 1281.28 65.4838C1183.9 64.8786 1090.77 61.5026 1090.79 59.9895Z" fill="#FDFADA"/>
<path d="M1378.05 48.6514C1378.05 48.9473 1383.6 49.3104 1435.74 49.0818C1493.57 48.8262 1573.8 47.9923 1573.82 47.071C1573.83 46.8424 1568.98 46.7953 1547.55 46.0555C1519.66 45.0872 1515.1 44.7307 1505.07 44.4281C1484.31 43.8094 1464.31 44.5962 1424.32 46.1766C1404.18 46.9701 1378.03 48.0058 1378.05 48.6514Z" fill="#FDFADA"/>
<path d="M1601.06 40.7495C1601.07 41.0454 1606.61 41.4086 1658.75 41.1799C1716.58 40.9244 1796.82 40.0905 1796.84 39.1692C1796.84 38.9405 1791.99 38.8934 1770.56 38.1537C1742.67 37.1853 1738.11 36.8289 1728.08 36.5262C1707.32 35.9075 1687.32 36.6944 1647.33 38.2747C1627.18 39.0683 1601.03 40.1039 1601.06 40.7495Z" fill="#FDFADA"/>
<path d="M1601.06 40.7495C1601.07 41.0454 1606.61 41.4086 1658.75 41.1799C1716.58 40.9244 1796.82 40.0905 1796.84 39.1692C1796.84 38.9405 1791.99 38.8934 1770.56 38.1537C1742.67 37.1853 1738.11 36.8289 1728.08 36.5262C1707.32 35.9075 1687.32 36.6944 1647.33 38.2747C1627.18 39.0683 1601.03 40.1039 1601.06 40.7495Z" fill="#FDFADA"/>
<path d="M1672.23 81.1939C1672.24 81.4764 1674.49 81.8732 1695.65 82.0951C1719.12 82.3439 1751.67 82.2296 1751.67 81.3486C1751.67 81.1334 1749.7 81.046 1741 80.1516C1729.67 78.9881 1727.82 78.6115 1723.75 78.2349C1715.32 77.4616 1707.21 78.0466 1690.99 79.2168C1682.82 79.8153 1672.22 80.5752 1672.23 81.1939Z" fill="#FDFADA"/>
<path d="M927.291 113.332C927.286 112.714 913.913 112.8 913.832 111.071C913.755 109.496 924.811 108.153 924.775 106.996C924.699 104.596 877.164 105.945 825.083 106.092C797.945 106.165 776.466 105.899 739.803 106.883C721.63 107.368 695.263 108.106 695.252 109.482C695.242 111.085 730.885 113.066 747.793 114.01C765.787 115.014 777.323 115.34 777.318 115.705C777.313 116.55 716.818 115.566 716.788 117.062C716.762 118.245 754.527 120.738 785.915 122.155C888.847 126.802 977.402 123.092 977.402 121.476C977.402 120.386 936.949 119.183 911.143 118.418C891.776 117.846 874.409 117.547 874.409 116.949C874.398 115.912 927.301 114.555 927.291 113.332Z" fill="#FDFADA"/>
<path d="M436.051 202.852C436.051 201.85 490.064 200.929 497.921 200.794C509.774 200.593 540.487 200.135 595.466 200.62C644.045 201.05 668.332 201.272 668.366 202.509C668.413 204.07 631.247 206.672 599.428 207.661C562.883 208.79 530.841 207.869 530.834 207.318C530.834 206.86 553.062 206.672 553.069 206.114C553.069 204.836 436.051 204.325 436.051 202.852Z" fill="#FDFADA"/>
<path d="M1707.75 239.68C1707.81 241.348 1765.21 240.548 1778.58 240.366C1843.28 239.499 1886.47 239.835 1886.47 239.163C1886.47 238.416 1832.38 238.161 1832.36 236.412C1832.33 235.027 1866.49 234.287 1866.48 233.15C1866.46 230.77 1717.29 230.642 1717.23 233.325C1717.21 233.917 1724.46 234.421 1724.46 235.726C1724.48 237.717 1707.72 238.773 1707.75 239.68Z" fill="#FDFADA"/>
<path d="M1655.78 258.305C1655.8 259.009 1687.29 258.924 1700.46 258.89C1741.44 258.779 1772.56 258.087 1772.55 257.719C1772.55 257.394 1748.06 257.551 1748.02 256.644C1747.99 255.971 1761.43 255.477 1761.41 254.884C1761.38 253.35 1670.2 253.121 1670.17 254.2C1670.16 254.739 1692.85 255.447 1692.82 256.055C1692.81 256.396 1685.62 256.3 1673.17 256.935C1670.34 257.08 1655.76 257.823 1655.78 258.305Z" fill="#FDFADA"/>
<path d="M1740.25 192.606C1740.31 194.274 1797.71 193.473 1811.08 193.292C1875.78 192.424 1918.97 192.76 1918.97 192.088C1918.97 191.341 1864.88 191.086 1864.86 189.337C1864.83 187.952 1898.99 187.212 1898.98 186.076C1898.96 183.695 1749.79 183.567 1749.73 186.251C1749.71 186.842 1756.96 187.347 1756.96 188.651C1756.98 190.642 1740.22 191.698 1740.25 192.606Z" fill="#FAF2A3"/>
<path d="M1686.82 203.595C1686.86 204.832 1730.21 204.684 1748.35 204.624C1804.78 204.429 1847.62 203.211 1847.62 202.566C1847.61 201.994 1813.89 202.27 1813.84 200.676C1813.8 199.493 1832.3 198.625 1832.28 197.583C1832.23 194.886 1706.68 194.482 1706.64 196.379C1706.62 197.327 1737.87 198.571 1737.83 199.64C1737.81 200.239 1727.91 200.071 1710.77 201.187C1706.87 201.443 1686.8 202.747 1686.82 203.595Z" fill="#FAF2A3"/>
<path fill-rule="evenodd" clip-rule="evenodd" d="M1442.65 561.2L1445.19 367.267C1441.8 365.499 1434.72 361.133 1433.42 357.812C1432.13 354.492 1428.43 355.045 1426.74 355.737L1424.43 357.812V350.894H1426.74V343.746L1421.66 342.362V329.218H1426.74V323.684H1429.04L1430.89 319.533H1438.5L1441.03 317.457V313.076L1430.89 311.231V309.617H1441.03L1438.5 306.389L1441.03 300.393H1438.5V295.781H1441.03L1445.19 293.936L1438.5 289.555V286.788H1445.19L1442.88 280.792L1438.5 274.335L1441.03 272.26H1445.19V260.269H1447.03V253.582H1449.57L1451.41 163.417H1452.56H1453.72H1454.87L1456.72 253.582H1459.25V260.269H1461.1V272.26H1465.25L1467.78 274.335L1463.4 280.792L1461.1 286.788H1467.78V289.555L1461.1 293.936L1465.25 295.781H1467.78V300.393H1465.25L1467.78 306.389L1465.25 309.617H1475.39V311.231L1465.25 313.076V317.457L1467.78 319.533H1475.39L1477.24 323.684H1479.54V329.218H1484.62V342.362L1479.54 343.746V350.894H1481.85V357.812L1479.54 355.737C1477.85 355.045 1474.15 354.492 1472.86 357.812C1471.57 361.133 1464.48 365.499 1461.1 367.267L1463.63 561.2H1453.72H1452.56H1442.65Z" fill="#CB589D"/>
<path d="M678.751 686.193H681.233V693.816C681.233 694.672 681.028 695.421 680.62 696.063C680.215 696.705 679.647 697.205 678.917 697.564C678.187 697.92 677.337 698.097 676.367 698.097C675.392 698.097 674.54 697.92 673.81 697.564C673.081 697.205 672.513 696.705 672.108 696.063C671.703 695.421 671.501 694.672 671.501 693.816V686.193H673.982V693.604C673.982 694.051 674.08 694.448 674.275 694.796C674.473 695.144 674.752 695.417 675.112 695.616C675.471 695.814 675.889 695.914 676.367 695.914C676.848 695.914 677.267 695.814 677.622 695.616C677.981 695.417 678.258 695.144 678.453 694.796C678.652 694.448 678.751 694.051 678.751 693.604V686.193ZM693.093 686.193V697.931H690.949L685.842 690.543H685.756V697.931H683.275V686.193H685.453L690.519 693.575H690.622V686.193H693.093ZM697.625 686.193V697.931H695.143V686.193H697.625ZM701.787 686.193L704.625 695.111H704.733L707.576 686.193H710.327L706.281 697.931H703.083L699.031 686.193H701.787ZM711.74 697.931V686.193H719.65V688.239H714.222V691.036H719.243V693.082H714.222V695.885H719.673V697.931H711.74ZM721.623 697.931V686.193H726.254C727.14 686.193 727.897 686.352 728.524 686.669C729.154 686.982 729.634 687.427 729.962 688.004C730.295 688.577 730.461 689.252 730.461 690.027C730.461 690.807 730.293 691.477 729.956 692.039C729.62 692.597 729.133 693.025 728.495 693.323C727.861 693.621 727.093 693.77 726.191 693.77H723.09V691.775H725.79C726.263 691.775 726.657 691.711 726.97 691.581C727.284 691.451 727.517 691.256 727.67 690.996C727.826 690.736 727.905 690.413 727.905 690.027C727.905 689.638 727.826 689.309 727.67 689.042C727.517 688.774 727.282 688.572 726.965 688.434C726.651 688.293 726.256 688.222 725.778 688.222H724.105V697.931H721.623ZM727.962 692.589L730.879 697.931H728.14L725.285 692.589H727.962ZM736.376 697.931H732.215V686.193H736.41C737.591 686.193 738.607 686.428 739.459 686.898C740.311 687.364 740.967 688.035 741.425 688.91C741.888 689.785 742.119 690.832 742.119 692.051C742.119 693.273 741.888 694.324 741.425 695.203C740.967 696.082 740.308 696.756 739.448 697.226C738.592 697.696 737.568 697.931 736.376 697.931ZM734.696 695.805H736.273C737.006 695.805 737.623 695.675 738.124 695.415C738.628 695.151 739.007 694.744 739.259 694.194C739.515 693.64 739.643 692.926 739.643 692.051C739.643 691.183 739.515 690.474 739.259 689.924C739.007 689.374 738.63 688.969 738.13 688.709C737.629 688.449 737.012 688.319 736.278 688.319H734.696V695.805ZM748.118 697.931H743.957V686.193H748.153C749.333 686.193 750.35 686.428 751.202 686.898C752.054 687.364 752.709 688.035 753.168 688.91C753.63 689.785 753.861 690.832 753.861 692.051C753.861 693.273 753.63 694.324 753.168 695.203C752.709 696.082 752.05 696.756 751.19 697.226C750.334 697.696 749.31 697.931 748.118 697.931ZM746.439 695.805H748.015C748.749 695.805 749.366 695.675 749.866 695.415C750.371 695.151 750.749 694.744 751.001 694.194C751.257 693.64 751.385 692.926 751.385 692.051C751.385 691.183 751.257 690.474 751.001 689.924C750.749 689.374 750.373 688.969 749.872 688.709C749.372 688.449 748.754 688.319 748.021 688.319H746.439V695.805ZM757.061 697.931H754.401L758.454 686.193H761.652L765.698 697.931H763.039L760.099 688.875H760.007L757.061 697.931ZM756.895 693.317H763.176V695.255H756.895V693.317ZM771.272 697.931H767.111V686.193H771.307C772.487 686.193 773.504 686.428 774.356 686.898C775.208 687.364 775.863 688.035 776.322 688.91C776.784 689.785 777.015 690.832 777.015 692.051C777.015 693.273 776.784 694.324 776.322 695.203C775.863 696.082 775.204 696.756 774.344 697.226C773.488 697.696 772.464 697.931 771.272 697.931ZM769.593 695.805H771.169C771.903 695.805 772.52 695.675 773.02 695.415C773.525 695.151 773.903 694.744 774.155 694.194C774.411 693.64 774.539 692.926 774.539 692.051C774.539 691.183 774.411 690.474 774.155 689.924C773.903 689.374 773.527 688.969 773.026 688.709C772.525 688.449 771.908 688.319 771.175 688.319H769.593V695.805ZM792.946 690.302H790.435C790.39 689.978 790.296 689.689 790.155 689.437C790.013 689.181 789.832 688.963 789.61 688.784C789.389 688.604 789.133 688.467 788.842 688.371C788.556 688.275 788.244 688.228 787.908 688.228C787.3 688.228 786.771 688.379 786.32 688.68C785.869 688.979 785.52 689.414 785.271 689.987C785.023 690.557 784.899 691.248 784.899 692.062C784.899 692.899 785.023 693.602 785.271 694.171C785.524 694.741 785.875 695.17 786.326 695.461C786.777 695.751 787.298 695.896 787.891 695.896C788.223 695.896 788.531 695.853 788.813 695.765C789.1 695.677 789.354 695.549 789.576 695.381C789.797 695.209 789.981 695 790.126 694.756C790.275 694.511 790.378 694.232 790.435 693.919L792.946 693.931C792.881 694.469 792.719 694.989 792.459 695.49C792.203 695.986 791.857 696.431 791.421 696.825C790.99 697.215 790.474 697.524 789.874 697.753C789.278 697.979 788.603 698.092 787.851 698.092C786.804 698.092 785.867 697.855 785.042 697.381C784.221 696.907 783.571 696.221 783.093 695.323C782.62 694.425 782.383 693.338 782.383 692.062C782.383 690.782 782.623 689.693 783.105 688.795C783.586 687.897 784.24 687.213 785.065 686.743C785.89 686.269 786.819 686.033 787.851 686.033C788.531 686.033 789.161 686.128 789.742 686.319C790.327 686.51 790.844 686.789 791.295 687.156C791.746 687.519 792.113 687.964 792.396 688.491C792.682 689.019 792.866 689.622 792.946 690.302ZM794.726 697.931V686.193H802.635V688.239H797.207V691.036H802.228V693.082H797.207V695.885H802.658V697.931H794.726ZM811.858 686.193H814.34V693.816C814.34 694.672 814.136 695.421 813.727 696.063C813.322 696.705 812.754 697.205 812.025 697.564C811.295 697.92 810.445 698.097 809.474 698.097C808.5 698.097 807.648 697.92 806.918 697.564C806.188 697.205 805.621 696.705 805.216 696.063C804.811 695.421 804.608 694.672 804.608 693.816V686.193H807.09V693.604C807.09 694.051 807.187 694.448 807.382 694.796C807.581 695.144 807.86 695.417 808.219 695.616C808.578 695.814 808.997 695.914 809.474 695.914C809.956 695.914 810.374 695.814 810.729 695.616C811.089 695.417 811.366 695.144 811.56 694.796C811.759 694.448 811.858 694.051 811.858 693.604V686.193ZM826.485 689.569C826.439 689.107 826.243 688.747 825.895 688.491C825.547 688.235 825.075 688.107 824.479 688.107C824.074 688.107 823.732 688.165 823.453 688.279C823.174 688.39 822.96 688.545 822.811 688.744C822.666 688.942 822.594 689.168 822.594 689.42C822.586 689.63 822.63 689.813 822.725 689.97C822.825 690.127 822.96 690.262 823.132 690.377C823.304 690.488 823.503 690.585 823.728 690.669C823.954 690.75 824.195 690.818 824.451 690.876L825.505 691.128C826.017 691.242 826.487 691.395 826.915 691.586C827.343 691.777 827.714 692.012 828.027 692.291C828.34 692.57 828.583 692.899 828.755 693.277C828.931 693.655 829.021 694.089 829.024 694.578C829.021 695.297 828.837 695.919 828.474 696.447C828.115 696.97 827.595 697.377 826.915 697.668C826.239 697.954 825.423 698.097 824.468 698.097C823.52 698.097 822.695 697.952 821.992 697.662C821.293 697.371 820.746 696.942 820.353 696.372C819.963 695.799 819.758 695.09 819.739 694.246H822.141C822.168 694.639 822.28 694.968 822.479 695.232C822.681 695.491 822.951 695.688 823.287 695.822C823.627 695.952 824.011 696.017 824.439 696.017C824.859 696.017 825.224 695.956 825.534 695.833C825.847 695.711 826.09 695.541 826.262 695.323C826.434 695.106 826.52 694.855 826.52 694.572C826.52 694.309 826.441 694.087 826.285 693.908C826.132 693.728 825.906 693.575 825.608 693.449C825.314 693.323 824.953 693.208 824.525 693.105L823.247 692.784C822.257 692.544 821.476 692.167 820.903 691.655C820.33 691.143 820.045 690.453 820.049 689.586C820.045 688.875 820.234 688.254 820.616 687.723C821.002 687.192 821.531 686.778 822.204 686.48C822.876 686.182 823.641 686.033 824.496 686.033C825.368 686.033 826.128 686.182 826.778 686.48C827.431 686.778 827.939 687.192 828.302 687.723C828.665 688.254 828.852 688.87 828.864 689.569H826.485ZM832.449 697.931H829.79L833.842 686.193H837.04L841.086 697.931H838.427L835.487 688.875H835.395L832.449 697.931ZM832.283 693.317H838.564V695.255H832.283V693.317ZM852.317 686.193V697.931H850.174L845.067 690.543H844.981V697.931H842.499V686.193H844.677L849.744 693.575H849.847V686.193H852.317ZM858.103 697.931V686.193H862.734C863.625 686.193 864.383 686.363 865.01 686.703C865.636 687.039 866.114 687.507 866.443 688.107C866.775 688.703 866.941 689.391 866.941 690.171C866.941 690.95 866.773 691.638 866.437 692.234C866.101 692.83 865.613 693.294 864.975 693.627C864.341 693.959 863.573 694.125 862.671 694.125H859.72V692.137H862.27C862.748 692.137 863.141 692.054 863.451 691.89C863.764 691.722 863.997 691.491 864.15 691.197C864.307 690.899 864.385 690.557 864.385 690.171C864.385 689.781 864.307 689.441 864.15 689.15C863.997 688.856 863.764 688.629 863.451 688.468C863.137 688.304 862.74 688.222 862.259 688.222H860.585V697.931H858.103ZM869.221 697.931H866.562L870.614 686.193H873.812L877.858 697.931H875.199L872.259 688.875H872.167L869.221 697.931ZM869.055 693.317H875.336V695.255H869.055V693.317ZM879.271 697.931V686.193H883.971C884.835 686.193 885.555 686.321 886.132 686.577C886.709 686.833 887.142 687.188 887.433 687.643C887.723 688.094 887.868 688.614 887.868 689.202C887.868 689.661 887.777 690.064 887.593 690.411C887.41 690.755 887.158 691.038 886.837 691.26C886.52 691.477 886.157 691.632 885.748 691.724V691.839C886.195 691.858 886.613 691.984 887.003 692.217C887.397 692.45 887.716 692.777 887.96 693.197C888.205 693.613 888.327 694.11 888.327 694.687C888.327 695.31 888.172 695.866 887.863 696.355C887.557 696.84 887.104 697.224 886.504 697.507C885.904 697.79 885.165 697.931 884.286 697.931H879.271ZM881.753 695.902H883.776C884.468 695.902 884.972 695.77 885.289 695.507C885.606 695.239 885.765 694.884 885.765 694.441C885.765 694.116 885.687 693.829 885.53 693.581C885.373 693.333 885.15 693.138 884.859 692.996C884.573 692.855 884.231 692.784 883.833 692.784H881.753V695.902ZM881.753 691.105H883.593C883.933 691.105 884.235 691.046 884.498 690.927C884.766 690.805 884.976 690.633 885.129 690.411C885.285 690.19 885.364 689.924 885.364 689.615C885.364 689.191 885.213 688.849 884.911 688.589C884.613 688.329 884.189 688.199 883.639 688.199H881.753V691.105ZM889.942 697.931V686.193H892.424V695.885H897.456V697.931H889.942ZM909.429 692.062C909.429 693.342 909.186 694.431 908.701 695.329C908.22 696.227 907.562 696.913 906.729 697.387C905.9 697.857 904.968 698.092 903.932 698.092C902.889 698.092 901.953 697.855 901.124 697.381C900.295 696.907 899.64 696.221 899.158 695.323C898.677 694.425 898.436 693.338 898.436 692.062C898.436 690.782 898.677 689.693 899.158 688.795C899.64 687.897 900.295 687.213 901.124 686.743C901.953 686.269 902.889 686.033 903.932 686.033C904.968 686.033 905.9 686.269 906.729 686.743C907.562 687.213 908.22 687.897 908.701 688.795C909.186 689.693 909.429 690.782 909.429 692.062ZM906.913 692.062C906.913 691.233 906.789 690.534 906.54 689.964C906.296 689.395 905.95 688.963 905.503 688.669C905.056 688.375 904.532 688.228 903.932 688.228C903.333 688.228 902.809 688.375 902.362 688.669C901.915 688.963 901.567 689.395 901.319 689.964C901.074 690.534 900.952 691.233 900.952 692.062C900.952 692.891 901.074 693.59 901.319 694.16C901.567 694.729 901.915 695.161 902.362 695.455C902.809 695.749 903.333 695.896 903.932 695.896C904.532 695.896 905.056 695.749 905.503 695.455C905.95 695.161 906.296 694.729 906.54 694.16C906.789 693.59 906.913 692.891 906.913 692.062Z" fill="white"/>
<path fill-rule="evenodd" clip-rule="evenodd" d="M1597.94 602.582H1621.17L1622.39 598.092V592.354L1615.66 585.867L1610.12 579.14C1609.97 579.138 1609.82 579.135 1609.67 579.131C1602.48 578.932 1596.2 579.048 1593.95 579.131L1599.94 596.345L1599.44 600.337L1597.94 602.582ZM1639.5 602.582H1646.57C1644.92 600.118 1643.75 597.252 1643.2 594.145L1640.35 601.085L1639.5 602.582ZM1678.05 602.582H1708.13C1706.89 601.146 1705.79 599.566 1704.85 597.867L1704.34 597.559L1703.47 597.343L1703.13 596.834L1701.58 595.896L1700.98 597.094L1690.5 597.343L1688.01 595.846L1687.51 596.096V596.345H1682.77L1680.93 596.298C1680.29 598.58 1679.31 600.698 1678.05 602.582ZM1745.22 602.582H1767.01L1764.35 601.834H1758.11H1754.87L1748.63 600.087H1747.14C1746.54 600.96 1745.9 601.793 1745.22 602.582ZM1817.69 602.582C1822.82 596.249 1825.97 587.74 1825.97 578.383C1825.97 558.817 1812.23 542.957 1795.28 542.957C1791.93 542.957 1788.7 543.578 1785.68 544.726L1782.81 540.212V536.221L1785.55 531.481L1784.3 529.734L1785.55 524.495L1787.05 521.751V517.51L1788.54 519.007L1795.53 523.497C1796.69 523.83 1799.92 523.946 1803.51 521.751C1807.11 519.556 1802.52 505.036 1799.77 498.051H1801.27L1805.76 495.556V491.065L1803.26 488.321V482.583L1801.27 481.336L1798.52 479.589L1796.53 477.344C1796.2 476.928 1795.18 475.598 1793.78 473.602C1792.39 471.606 1789.54 470.442 1788.3 470.109V468.612V467.115L1787.05 464.122L1787.8 460.878L1789.29 458.883V457.136V454.392L1787.05 453.893V452.646L1786.3 450.899L1784.05 449.901H1781.81H1780.06L1774.32 453.893L1771.83 455.639L1770.58 459.88V461.627L1769.83 462.126L1771.08 463.373V464.122L1773.08 467.614L1774.32 467.115L1775.32 467.614V468.612V469.61L1771.08 474.6H1769.83L1763.6 480.587L1750.62 491.564L1749.38 492.812H1745.88H1743.89L1742.14 495.556V499.827C1741.53 499.834 1740.38 499.894 1738.4 500.046C1733.21 500.446 1732.74 507.531 1733.16 511.023L1727.17 524.495V526.491V528.487V533.476L1722.18 536.221L1718.94 539.464V541.709L1722.18 543.206L1713.2 545.701V541.709L1708.71 537.718L1705.97 539.464H1699.48L1696.99 543.206L1692.99 545.701H1691.5L1685.76 547.198L1687.76 548.695L1682.52 554.932L1669.04 560.42L1660.31 561.668L1658.57 559.173L1650.83 552.936C1648.17 550.275 1640.65 545.402 1631.87 547.198C1623.09 548.994 1612.75 544.786 1608.67 542.458V540.462L1606.68 537.718L1602.68 534.474V532.229L1601.69 529.984L1600.44 525.493V522.25H1599.19L1594.2 517.51L1593.2 513.269L1587.22 512.271L1585.22 508.529H1581.23H1576.99L1573.99 509.527L1570.5 510.525L1565.26 514.017V518.508H1563.76L1559.02 523.248H1557.28L1553.54 521.252H1551.54H1546.55L1542.31 523.248H1538.82L1537.07 525.493L1535.07 527.739L1534.08 533.227L1531.08 534.474L1530.09 538.466L1528.59 541.959L1523.6 550.69L1525.84 553.934L1530.09 558.424L1533.33 560.42L1537.07 563.164L1540.81 560.42L1542.31 562.416V563.164V566.657H1543.31V568.403V571.896H1542.31L1535.07 578.383L1532.33 579.38L1531.08 581.875L1530.09 584.869L1532.33 589.859H1535.07L1537.07 588.611L1545.3 582.624H1546.55L1561.02 583.372L1568.75 597.592L1571.75 602.083H1565.26L1564.89 602.582H1509.63V609.068H1497.66V624.037H1507.63V749.206H1841.74V624.037H1851.92V609.068H1839.94V602.582H1817.69ZM1578.23 585.119L1577.93 582.873H1581.48C1582.06 583.123 1583.57 584.32 1584.97 587.114C1586.37 589.909 1586.88 595.43 1586.97 597.842H1583.24L1582.47 595.847L1578.23 585.119ZM1641.85 576.886C1642.92 577.993 1644.04 579.059 1645.16 580.07C1643.86 582.716 1643.05 585.698 1642.88 588.867L1641.85 587.114V576.886Z" fill="#803978"/>
<path fill-rule="evenodd" clip-rule="evenodd" d="M951.775 355.86C965.92 363.751 975.941 372.979 980.928 379.222L975.69 388.269H983.308L977.833 400.648L975.69 404.458V425.17C976.642 426.043 980.166 428.884 986.641 433.264C993.117 437.645 989.34 441.279 986.641 442.549L987.975 445.406H1058.86L1057 438.978L1052.72 428.265L1059.62 430.646L1057 421.123L1061.29 422.789L1070.33 428.265H1071.52V419.695V416.6V414.457V413.029H1077.48L1080.33 414.457V419.695L1082.48 428.265L1097.47 419.695L1089.38 434.693L1102.95 428.265L1091.52 440.645V445.406H1129.1L1130.8 443.502H1132.47L1122.47 430.646L1132.47 434.693L1126.76 419.695L1143.42 425.17H1149.14V422.789V413.029V411.6V408.029L1153.9 406.363H1156.99L1158.18 411.6V413.029V416.6H1162.47V422.789V423.98L1166.51 428.265V430.646V434.693H1175.08L1166.51 445.168L1165.56 451.522V459.452H1180.08L1177.7 462.547V467.071L1170.32 472.342V495.401H1165.56V619.197H1175.56V648.242H1121.76V619.197H1132.71V567.774H1094.62V619.197L1102.71 619.197V648.242H1048.91V619.197L1061.76 619.197V542.695C1061.68 533.34 1057.93 524.386 1051.31 517.764C1044.61 511.067 1035.53 507.305 1026.06 507.305C1016.58 507.305 1007.5 511.067 1000.8 517.764C994.107 524.461 990.345 533.544 990.345 543.015H990.343V619.197L1002.25 619.197V648.242H919.398V619.197L924.635 619.197V542.542C924.512 533.242 920.764 524.35 914.179 517.764C907.482 511.067 898.399 507.305 888.928 507.305C879.457 507.305 870.374 511.067 863.677 517.764C856.98 524.461 853.217 533.544 853.217 543.015H853.214V619.197L863.689 619.197V648.242H780.84V619.197L787.507 619.197V542.544C787.384 533.243 783.636 524.35 777.05 517.764C770.353 511.067 761.27 507.305 751.799 507.305C742.328 507.305 733.245 511.067 726.548 517.764C719.851 524.461 716.088 533.544 716.088 543.015H716.084V619.197L734.178 619.197V648.242H680.374V619.197L683.231 619.197V567.774H645.138V619.197H661.329V648.242H607.525V619.197H612.285V495.401H607.525V471.323L601.572 467.071V462.547L599.191 459.452H612.285V445.406H612.797L612.761 445.168L604.191 434.693H612.761V430.646V428.265L616.809 423.98V422.789V416.6H621.094V413.029V411.6L622.284 406.363H625.379L630.141 408.029V411.6V413.029V422.789V425.17H635.854L652.519 419.695L646.806 434.693L656.805 430.646L646.806 443.502H648.472L650.176 445.406H687.754V440.645L676.326 428.265L689.896 434.693L681.802 419.695L696.8 428.265L698.943 419.695V414.457L701.8 413.029H707.752V414.457V416.6V419.695V428.265H708.942L717.989 422.789L722.274 421.123L719.655 430.646L726.559 428.265L722.274 438.978L720.413 445.406H793.791L795.124 442.549C792.426 441.279 788.649 437.645 795.124 433.264C801.6 428.884 805.123 426.043 806.076 425.17V404.458L803.933 400.648L798.457 388.269H806.076L800.838 379.222C806.731 371.845 819.649 360.303 838.095 351.721L836.31 346.368C836.628 344.702 838.167 341.083 841.786 339.94C845.405 338.798 844.087 337.401 842.976 336.846L841.786 330.418V324.466L846.071 322.799H849.166L852.261 324.466V331.846V336.846H849.166L850.595 339.94L857.023 342.083L857.958 344.489C860.108 343.913 862.307 343.387 864.553 342.919L874.878 336.846V338.75L882.496 335.417L879.225 340.805C882.536 340.537 885.929 340.402 889.401 340.417C889.903 340.419 890.397 340.429 890.883 340.449C891.37 340.429 891.864 340.419 892.365 340.417C894.935 340.406 897.462 340.477 899.945 340.624L896.066 331.846L905.279 341.059C906.021 341.136 906.76 341.22 907.494 341.311V333.274L914.426 342.373C915.415 342.555 916.395 342.748 917.367 342.951L923.444 342.083V338.75V336.846L921.778 333.274V331.846H926.539V327.085H930.586H932.491L931.539 329.703V333.274L932.491 342.083L938.919 344.702V348.749L942.252 350.416H945.109H949.394H951.775V355.86ZM615.201 466.356L615.201 466.356H634.188V466.356H615.201Z" fill="#803978"/>
<rect x="-21.5234" y="644.253" width="1952.94" height="356.424" fill="#803978"/>
<path fill-rule="evenodd" clip-rule="evenodd" d="M1286.53 597.654L1283.9 592.643C1283.67 592.319 1282.57 591.114 1280.01 588.89C1277.45 586.666 1279.87 574.341 1281.4 568.456L1283.9 562.062L1284.74 563.035C1285.48 564.24 1287.93 567.316 1291.83 569.985C1295.72 572.654 1300.49 578.696 1302.39 581.384L1306.14 586.805L1306.84 589.863V593.755L1314.15 597.654H1286.53ZM1315.18 597.654H1373.01L1372.45 597.091L1371.89 592.643L1370.36 591.67L1368.7 592.643L1368.14 589.863L1366.75 585.415L1369.25 573.877V564.564L1369.67 556.502L1370.36 543.435V540.794C1358.83 543.111 1333.25 546.494 1323.24 541.489C1313.23 536.485 1311.84 536.532 1312.4 537.18L1304.75 548.44L1296.83 558.865L1296 565.537L1310.45 579.716L1315.18 589.863V597.654ZM1383.45 597.654H1420.52V605.603L1439.59 605.603V621.102L1421.72 621.102V753.443H1249.67V621.102L1231.34 621.102V605.603L1250.42 605.603V597.654H1278.12L1276.26 595.979L1274.73 590.558H1272.64C1271.95 589.075 1270.98 584.942 1272.64 580.272C1274.31 575.601 1275.75 566.835 1276.26 563.035V554.973C1279.83 551.266 1286.96 543.157 1286.96 540.377V533.705C1283.58 531.898 1276.4 523.947 1274.73 506.599L1273.62 558.865H1271.67V566.371L1269.31 577.214L1267.78 580.272L1262.36 585.137L1260.97 583.33L1259.3 578.326L1258.05 580.272L1256.38 577.214V570.819L1260.97 559.838L1259.3 557.614L1260.97 552.888L1262.36 540.377V535.929L1264.44 524.114C1265.69 516.144 1268.42 500.038 1269.31 499.371C1270.2 498.704 1271.9 495.201 1272.64 493.533L1279.59 487.973H1281.96C1284.09 485.656 1290.97 481.134 1301.42 481.579C1311.87 482.023 1318.19 483.247 1320.04 483.803L1315.04 478.104V470.736L1320.04 467.678L1328.39 465.037L1326.44 461.979V459.477L1325.33 456.975V454.612V453.5V450.442V448.635V445.577V440.989L1326.44 437.097L1330.89 431.815L1332.28 429.452H1334.78L1336.31 426.394C1335.71 425.514 1334.06 423.892 1332.28 424.448L1330.89 423.336L1332.83 419.027L1334.78 418.61H1335.47C1335.15 417.081 1335.25 413.578 1338.25 411.798C1341.26 410.019 1342.01 409.945 1342.01 410.13L1344.09 409.574H1345.34L1346.04 408.879L1347.01 410.13V411.798L1347.71 413.467L1347.98 415.274L1348.26 416.942V419.583L1349.65 421.668L1348.26 422.641L1348.68 423.475V424.031V424.726C1349.7 425.328 1351.63 426.922 1351.18 428.479C1350.74 430.036 1350.26 430.888 1350.07 431.12L1348.26 432.927L1346.87 432.788L1345.34 430.703L1344.65 430.425L1345.2 431.398L1345.48 432.649L1349.65 437.653L1358.97 432.927L1358.55 431.12L1359.52 429.869H1360.36L1360.91 430.703L1363.69 427.367L1366.06 425.838L1368.28 420.556L1370.78 421.112L1369.39 424.726L1370.78 425.838L1369.39 427.923L1369.67 428.757L1369.39 429.869V431.398L1367.86 432.649L1366.06 434.734L1357.02 459.477L1358.55 460.172L1362.86 460.867V462.396L1362.3 462.813V465.871L1364.94 468.651L1366.19 470.18L1369.11 466.844L1369.81 471.014C1371.75 466.195 1376.81 455.891 1381.48 453.222C1384.26 450.812 1390.83 445.882 1394.83 445.438C1398.83 444.993 1400.48 444.047 1400.81 443.63V443.074H1406.37C1407.2 442.889 1409.09 442.63 1409.98 443.074C1410.87 443.519 1412.2 443.908 1412.76 444.047H1415.96H1418.04L1415.96 440.433L1421.52 443.074L1419.43 437.653L1424.58 443.63L1425.69 441.406V445.855C1427.63 447.291 1431.67 450.775 1432.22 453.222C1432.64 455.057 1433.24 456.016 1433.67 456.439L1431.11 454.612C1431.34 456.465 1431.67 460.645 1431.11 462.535C1430.55 464.425 1430.32 464.064 1430.28 463.647L1428.89 461.562L1427.77 457.392L1426.52 453.222L1427.36 462.535C1428.1 466.52 1429.33 475.74 1428.33 480.745C1427.33 485.749 1426.15 489.224 1425.69 490.336V492.699L1424.16 494.367L1420.82 495.062L1419.43 493.116H1418.04V494.367L1415.54 492.282L1412.48 496.035L1406.51 499.927L1403.31 500.205C1402.52 503.356 1400.64 510.158 1399.42 512.16C1399.51 513.781 1399.44 517.664 1398.44 520.222C1398.07 524.438 1395.64 533.733 1388.85 537.18C1390.66 539.312 1396.14 544.77 1403.59 549.552L1404.84 550.525L1405.81 555.529L1395.52 574.294L1385.1 579.716H1382.74L1375.92 578.326L1381.07 569.985H1386.91L1392.19 566.649C1394.41 563.73 1398.53 557.419 1397.19 555.529C1397.1 554.695 1395.97 552.777 1392.19 551.776C1388.41 550.775 1384.31 548.393 1382.74 547.328C1381.35 549.413 1378.57 554.083 1378.57 556.085V563.313L1375.92 569.29C1375.18 572.997 1373.81 580.855 1374.26 582.635C1374.7 584.414 1375.18 586.156 1375.37 586.805L1375.92 588.056L1381.07 592.643L1383.45 597.654ZM1434.03 456.697L1433.67 456.439C1433.81 456.581 1433.94 456.662 1434.03 456.697ZM1354.94 455.862L1362.03 437.792L1361.19 437.236L1351.88 444.603L1354.24 450.302V453.638L1354.94 455.862ZM1404.98 477.547C1405.09 481.773 1404.37 493.208 1404 498.398L1406.09 497.147L1409.56 495.201L1413.18 491.865L1413.87 490.057V486.582L1414.43 484.08V482.134L1412.9 479.076L1411.51 475.462C1410.06 474.572 1408.78 472.497 1408.31 471.57H1407.2C1406.41 471.802 1404.87 473.321 1404.98 477.547Z" fill="#803978"/>
<path fill-rule="evenodd" clip-rule="evenodd" d="M281.963 344.319H278.876V355.122H278.359V350.492H275.273V359.013V359.014V364.767H274.756V356.665H271.67V368.497H269.099V380.843H267.556V383.929H269.099V385.986H267.556V391.13H262.928V394.216H267.556V396.274H262.928V399.36H267.556V426.109H264.471V446.169H258.812V441.54H250.068V446.169H243.896V452.342H241.838V461.087H250.068V484.749H234.119V469.318H232.062V457.486H228.976V469.318H226.403V484.749H149.761V531.045H121.985V505.839H121.986V456.972H118.898V439.483H116.84V427.651H113.754V439.483H111.182V456.972H110.668V447.641H108.609V441.025H105.523V447.641H102.952V456.972H101.922V439.483H99.8633V427.651H96.777V439.483H94.2057V456.972H92.6633V457.422H91.1193V447.641H89.061V441.025H85.9746V447.641H83.4034V456.972H80.8312V439.483H78.7746V427.651H75.6882V439.483H73.1153V456.972H71.5729V497.609H70.5469V483.591H67.4598V474.157H65.916V467.774H65.4031V467.774H62.3167V474.157H59.7439V483.591H58.2014V497.609H57.6853V491.95H54.5989V497.609H17.0486V490.407H13.9615V472.918H11.9048V461.087H8.81843V472.918H6.24554V490.407H4.70312V539.275H5.7322V606.146H21.6986L9.33035 606.146V655.014H22.1902V609.127C21.8604 608.372 21.6775 607.537 21.6775 606.66C21.6775 606.487 21.6846 606.316 21.6986 606.146C21.9598 602.978 24.6142 600.487 27.8502 600.487C31.0863 600.487 33.7407 602.978 34.0019 606.146H42.7674L34.0241 606.146V655.014H42.7688V606.215C42.7679 606.192 42.7674 606.169 42.7674 606.146V606.146C42.7674 605.009 43.9189 604.088 45.3393 604.088C46.7598 604.088 47.9113 605.009 47.9113 606.146V606.146L47.9111 606.17L47.9108 606.188V655.014H56.6555V606.146L47.9113 606.146H56.6753C56.9147 602.978 59.3479 600.487 62.3143 600.487C65.2807 600.487 67.7139 602.978 67.9533 606.146H80.8414C80.8354 606.061 80.8323 605.975 80.8323 605.888C80.8323 603.758 82.6747 602.031 84.9475 602.031C87.2202 602.031 89.0626 603.758 89.0626 605.888C89.0626 605.927 89.062 605.966 89.0608 606.004C89.0603 606.022 89.0596 606.04 89.0588 606.057L89.0564 606.103L89.0536 606.146H101.945C102.228 602.978 105.104 600.487 108.61 600.487C112.115 600.487 114.991 602.978 115.274 606.146H133.839C134.122 602.978 136.998 600.487 140.503 600.487C144.009 600.487 146.885 602.978 147.168 606.146H165.717C165.882 603.851 168.233 602.031 171.109 602.031C173.986 602.031 176.337 603.851 176.501 606.146H189.379C189.543 603.851 191.894 602.031 194.771 602.031C197.647 602.031 199.998 603.851 200.163 606.146H225.388C225.552 603.851 227.903 602.031 230.78 602.031C233.656 602.031 236.008 603.851 236.172 606.146L254.737 606.146C255.037 604.116 257.094 602.545 259.586 602.545C262.078 602.545 264.135 604.116 264.435 606.146H273.216L264.471 606.146V606.559C264.472 606.593 264.473 606.626 264.473 606.66C264.473 606.693 264.472 606.727 264.471 606.76V655.014H273.216V606.241C273.216 606.209 273.216 606.178 273.216 606.146C273.216 601.317 277.476 597.401 282.732 597.401C287.988 597.401 292.248 601.317 292.248 606.146H301.03C301.331 604.116 303.387 602.545 305.879 602.545C308.372 602.545 310.428 604.116 310.728 606.146L329.294 606.146C329.458 603.851 331.809 602.03 334.686 602.03C337.562 602.03 339.914 603.851 340.078 606.146H365.301C365.465 603.851 367.816 602.03 370.693 602.03C373.57 602.03 375.921 603.851 376.085 606.146H388.962C389.126 603.851 391.478 602.03 394.354 602.03C397.231 602.03 399.582 603.851 399.746 606.146H418.296C418.579 602.978 421.455 600.487 424.96 600.487C428.466 600.487 431.342 602.978 431.625 606.146H450.19C450.473 602.978 453.348 600.487 456.854 600.487C460.36 600.487 463.236 602.978 463.518 606.146H476.41C476.404 606.061 476.401 605.975 476.401 605.888C476.401 603.758 478.243 602.03 480.516 602.03C482.789 602.03 484.631 603.758 484.631 605.888C484.631 605.975 484.628 606.061 484.622 606.146H497.509C497.748 602.978 500.181 600.487 503.148 600.487C506.114 600.487 508.548 602.978 508.787 606.146H517.552L508.808 606.146V655.014H517.553V606.186C517.552 606.173 517.552 606.16 517.552 606.146V606.146C517.552 605.009 518.704 604.088 520.124 604.088C521.545 604.088 522.696 605.009 522.696 606.146V606.146H531.462C531.723 602.978 534.378 600.487 537.614 600.487C540.85 600.487 543.504 602.978 543.765 606.146C543.779 606.316 543.786 606.487 543.786 606.66C543.786 607.536 543.604 608.37 543.275 609.125V655.014H556.135V606.146L543.765 606.146H560.249V539.275H560.25V490.407H558.708V472.918H556.136V461.087H553.05V472.918H550.992V490.407H547.904V497.609H510.353V491.951H507.266V497.609H506.751V483.593H505.209V474.158H502.636V467.775H499.55L499.034 467.775V474.158H497.493V483.593H494.406V497.609H493.376V456.972H491.834V439.483H489.262V427.652H486.176V439.483H484.118V456.972H481.55V447.641H478.978V441.026H475.892V447.641H473.834V457.422H472.286V456.972H470.743V439.483H468.171V427.652H465.084V439.483H463.028V456.972H462.001V447.642H459.43V441.026H456.343V447.642H454.285V456.972H453.765V439.483H451.196V427.652H448.109V439.483H446.049V456.972H442.964V505.84H442.965V509.955H442.966V531.045H416.218V484.749H343.173V468.803H341.115V456.972H338.028V468.803H335.457V484.749H326.198V461.087H333.915V452.342H331.343V446.169H326.198V441.54H317.453V446.169H311.796V426.109H309.738V399.36H312.824V396.274H309.738V394.216H312.824V391.13H309.738V387.53H306.651V383.929H309.737V380.843H306.651V370.04H304.594V364.767H304.592V358.209H301.506V359.014H300.994V350.492H297.907V355.122H297.392V344.319H294.306V359.014H293.791V364.767L292.249 364.767L291.734 364.767V359.013H289.676V355.122H286.59V359.013H284.019V364.767H282.989V359.014V359.013H281.963V344.319ZM300.994 606.575C300.993 606.593 300.993 606.61 300.993 606.627L300.993 606.66C300.993 606.688 300.993 606.716 300.994 606.744V655.014H292.249V606.146H300.994V606.575ZM329.286 606.146V606.306C329.285 606.338 329.285 606.37 329.285 606.403L329.285 606.446C329.285 606.464 329.285 606.481 329.286 606.499V655.014H310.768V606.146H329.286ZM365.293 606.319C365.292 606.347 365.292 606.375 365.292 606.403C365.292 606.431 365.292 606.459 365.293 606.487V655.014H340.088V606.146H365.293V606.319ZM388.954 606.146V606.319C388.954 606.347 388.953 606.375 388.953 606.403C388.953 606.431 388.954 606.459 388.954 606.487V655.014H376.094V606.146H388.954ZM418.277 606.463C418.274 606.528 418.273 606.594 418.273 606.66C418.273 606.726 418.274 606.792 418.277 606.857V655.014H399.758V606.146H418.277V606.463ZM431.649 655.014V606.146H450.167V606.633L450.167 606.66L450.167 606.687V655.014H431.649ZM497.493 606.438C497.491 606.512 497.49 606.586 497.49 606.66L497.49 606.698C497.49 606.731 497.49 606.764 497.491 606.798L497.492 606.855L497.493 606.882V655.014H484.633V606.146H497.493V606.438ZM531.443 606.511C531.442 606.528 531.442 606.545 531.442 606.562C531.441 606.595 531.441 606.627 531.441 606.66C531.441 606.71 531.442 606.76 531.443 606.809V655.014H522.698V606.146H531.443V606.511ZM236.18 655.014V606.503C236.18 606.47 236.181 606.436 236.181 606.403L236.181 606.37L236.181 606.349L236.18 606.317L236.18 606.303V606.146H254.698V655.014H236.18ZM189.371 606.306C189.37 606.338 189.369 606.371 189.369 606.403C189.369 606.419 189.37 606.435 189.37 606.452C189.37 606.468 189.37 606.484 189.371 606.5V655.014H176.511V606.146H189.371V606.306ZM147.19 606.74C147.19 606.713 147.19 606.687 147.19 606.66C147.19 606.633 147.19 606.607 147.19 606.58V606.146H165.708V655.014H147.19V606.74ZM101.923 606.146V606.55C101.923 606.587 101.922 606.623 101.922 606.66C101.922 606.697 101.923 606.733 101.923 606.77V655.014H89.0636V606.146H101.923ZM67.9718 606.766C67.9724 606.731 67.9726 606.695 67.9726 606.66C67.9726 606.625 67.9724 606.59 67.9718 606.554V606.146H80.8317V655.014H67.9718V606.766ZM276.815 385.986V383.929H282.99V391.13H279.902V385.986H276.815ZM276.815 380.843H282.99V380.842L276.815 380.842V380.843ZM286.076 391.13V383.929H290.192V391.13H286.076ZM286.076 380.843H290.192V380.842H286.076V380.843ZM293.278 391.13V383.929H298.935V387.53H297.392V391.13H293.278ZM293.278 380.843H298.935V380.842L294.822 380.842H293.278V380.843ZM297.392 394.216H293.278V396.274H297.392V394.216ZM297.392 399.36H293.278V417.364H297.392V399.36ZM297.392 420.45H293.278V426.109H297.392V420.45ZM282.99 426.109H279.902V420.45H282.99V426.109ZM282.99 417.364H279.902V399.36H282.99V417.364ZM282.99 396.274H279.902V394.216H282.99V396.274ZM502.12 517.156V512.526H507.266V517.156H502.12ZM502.12 531.045V522.3H507.266V531.045H502.12ZM506.751 507.382V502.753H507.266V507.382H506.751ZM510.353 531.045H514.982V522.3H510.353V531.045ZM523.212 531.045H518.068V522.3H523.212V531.045ZM523.212 517.156H518.068V512.526H523.212V517.156ZM510.353 512.526H514.982V517.156H510.353V512.526ZM510.353 507.382H514.982V502.753H510.353V507.382ZM523.212 507.382H518.068V502.753H523.212V507.382ZM526.299 531.045V522.3H530.928V531.045H526.299ZM526.299 517.156H530.928V512.526H526.299V517.156ZM534.014 531.045V522.3H538.645V531.045H534.014ZM534.014 517.156H538.645V512.526H534.014V517.156ZM541.731 531.045V522.3H547.904V531.045H541.731ZM541.731 517.156H547.904V512.526H541.731V517.156ZM530.928 507.382H526.299V502.753H530.928V507.382ZM538.645 507.382H534.014V502.753H538.645V507.382ZM547.904 507.382H541.731V502.753H547.904V507.382ZM488.233 509.955V519.728H452.741V509.955H488.233ZM57.6853 512.526H62.8296V517.156H57.6853V512.526ZM57.6853 522.3H62.8296V531.045H57.6853V522.3ZM65.916 522.3V531.045H67.9718V522.3H65.916ZM65.916 512.526V517.156H67.9718V512.526H65.916ZM58.2014 502.753H57.6853V507.382H58.2014V502.753ZM49.9683 502.753H54.5989V507.382H49.9683V502.753ZM46.882 502.753H41.7391V507.382H46.882V502.753ZM46.882 512.526H41.7391V517.156H46.882V512.526ZM46.882 522.3H41.7391V531.045H46.882V522.3ZM49.9683 531.045V522.3H54.5989V531.045H49.9683ZM49.9683 517.156V512.526H54.5989V517.156H49.9683ZM38.6527 517.156V512.526H34.024V517.156H38.6527ZM34.024 522.3H38.6527V531.045H34.024V522.3ZM30.9376 517.156V512.526H26.307V517.156H30.9376ZM26.307 522.3H30.9376V531.045H26.307V522.3ZM23.2206 517.156V512.526H17.0486V517.156H23.2206ZM17.0486 522.3H23.2206V531.045H17.0486V522.3ZM38.6527 502.753V507.382H34.024V502.753H38.6527ZM30.9376 502.753V507.382H26.307V502.753H30.9376ZM23.2206 502.753V507.382H17.0486V502.753H23.2206ZM113.24 519.728H76.7165V509.955H113.24V519.728ZM311.796 461.087H317.453V484.749H311.796V461.087ZM290.192 426.109V420.45H286.076V426.109H290.192ZM290.192 417.364V399.36H286.076V417.364H290.192ZM290.192 396.274V394.216H286.076V396.274H290.192ZM258.812 461.087V484.749H264.471V461.087H258.812ZM115.298 606.146H133.816V655.014H115.298V606.146ZM200.172 655.014V606.146H225.377V655.014H200.172ZM476.403 606.146H463.543V655.014H476.403V606.146Z" fill="#803978"/>
<rect x="-25.5547" y="753.87" width="1952.94" height="356.424" fill="#333333"/>
<path fill-rule="evenodd" clip-rule="evenodd" d="M353.116 573.051L362.901 587.133L369.876 587.369H332.76V596.916H537.061V587.369H503.716V580.45C502.92 579.734 500.327 577.252 496.317 573.051C492.308 568.85 491.942 555.708 492.26 549.661C491.305 532.796 489.396 496.725 489.396 487.369C489.396 478.013 497.351 472.651 501.329 471.139L496.317 458.729H492.26C490.669 458.569 487.391 457.297 487.009 453.478C486.627 449.659 488.441 422.133 489.396 408.847C490.828 407.812 494.885 406.365 499.659 408.847C504.432 411.329 504.352 407.812 503.716 405.744H506.103H509.683H511.831L515.888 403.119L518.752 399.061H520.9L524.719 393.811H527.106L528.538 391.185H531.64L535.459 386.412L538.323 382.116V377.342L535.459 371.614V367.796L528.538 357.771V353.237L520.9 349.657C519.945 348.861 517.606 346.936 515.888 345.599C514.17 344.263 511.035 342.815 509.683 342.258C508.728 341.383 506.675 339.203 506.103 337.485C505.759 336.455 504.154 336.028 502.445 335.574C500.589 335.081 498.609 334.555 497.988 333.189C497.033 331.088 487.884 328.177 483.429 326.983C482.952 326.188 480.995 324.31 476.985 323.164C472.975 322.019 469.745 325.233 468.632 326.983C467.677 328.097 464.861 330.086 461.233 329.131C457.605 328.176 449.22 334.302 445.481 337.485L439.991 339.633C439.116 340.349 436.316 341.876 432.115 342.258C427.915 342.64 425.751 355.146 425.194 361.351C424.319 363.022 421.661 366.984 418.034 369.466C414.406 371.948 416.522 378.933 418.034 382.116V384.502L406.902 390.614C406.45 390.32 405.305 389.891 402.998 389.276C397.269 387.748 387.086 395.163 382.711 399.061H378.892V405.744V408.847H382.711V416.007L386.052 417.439L383.904 419.825L386.052 439.158L378.892 453.478C380.085 456.66 381.088 464.648 375.551 471.139C368.629 479.254 362.901 491.188 353.116 511.952C345.287 528.563 356.378 546.877 362.901 553.958L353.116 573.051ZM465.29 455.864L460.993 460.638L455.981 462.547L453.117 467.321L446.673 471.139L438.559 476.629H435.933C433.833 476.629 433.308 480.129 433.308 481.879L430.682 484.266V487.369C429.569 491.267 426.912 499.302 425.193 500.257C423.475 501.212 422.25 503.837 421.852 505.03L418.033 511.952L412.782 518.634L405.861 526.272C409.441 531.682 415.837 543.933 412.782 549.661C409.727 555.389 406.895 554.912 405.861 553.957L402.997 570.426L401.088 575.676L407.532 573.051L412.782 575.676L416.124 580.45V582.12L418.033 584.984H430.682C433.149 585.621 439.322 585.605 444.287 580.45C450.492 574.006 460.993 549.661 460.993 543.695C460.993 538.921 462.744 515.93 463.619 505.03L465.29 473.765V455.864ZM423.047 399.061L425.195 396.674L427.582 399.061H430.684L433.31 403.118L438.56 405.743H444.288L446.675 408.846L448.584 410.039H451.687L453.119 410.994H455.267H455.983L458.37 408.846L460.995 412.187H458.37L455.267 417.438V421.496V428.417C455.347 430.088 455.458 433.763 455.267 435.1C455.076 436.436 449.46 439.793 446.675 441.305C443.652 443.851 437.272 447.415 435.935 441.305C434.598 435.195 426.786 430.167 423.047 428.417V423.166L421.853 414.813C420.024 412.824 416.698 408.226 418.035 405.743C419.371 403.261 421.933 400.254 423.047 399.061ZM331.854 774.486V615.533H538.503V774.486H331.854ZM559.973 615.532V596.916H309.848V615.532H559.973Z" fill="#333333"/>
<path d="M1475.16 642.023L1473.49 641.076C1469.55 635.704 1461.86 623.192 1462.61 616.115C1463.55 607.268 1461.77 608.111 1468.47 599.58C1468.68 597.965 1469.53 594.272 1471.29 592.418C1471.64 592.055 1471.89 591.805 1472.07 591.643C1473.25 585.629 1475.68 574.695 1477.04 573.566C1477.18 572.302 1477.44 569.67 1477.36 569.248C1477.25 568.722 1478.09 560.191 1479.56 558.716C1480.73 557.537 1480.88 556.048 1480.81 555.452C1480.91 555.1 1480.75 554.04 1479.24 552.608C1477.74 551.176 1476.66 549.835 1476.31 549.343C1476.1 548.711 1475.71 547.195 1475.79 546.183C1475.87 545.172 1475.82 544.358 1475.79 544.077C1475.72 543.41 1475.73 541.992 1476.31 541.655C1476.9 541.318 1477.04 540.812 1477.04 540.602C1477.15 539.513 1477.74 537.063 1479.24 535.968C1480.75 534.872 1480.08 535.301 1479.56 535.652L1476.73 525.962C1476.42 525.365 1476.29 524.53 1478.3 525.962C1480.31 527.395 1484.16 530.421 1485.83 531.755C1487.23 531.509 1490.58 531.312 1492.84 532.492H1493.47C1494.02 531.93 1495.35 530.322 1496.19 528.385C1496.6 527.823 1497.8 526.952 1499.22 527.963C1500.64 528.974 1501.42 530.912 1501.63 531.755L1502.04 536.178L1501.63 537.758L1502.04 539.022C1502.46 539.794 1503.28 541.718 1503.19 543.234C1503.11 544.751 1502.95 546.956 1502.88 547.868C1502.81 550.15 1503.24 555.241 1505.5 557.347C1506.79 558.225 1509.47 561.096 1509.89 565.562C1510.41 571.144 1510.1 571.986 1511.98 575.357C1513.86 578.727 1514.7 582.202 1515.22 591.47C1515.5 596.363 1515.52 596.205 1515.46 594.664C1515.36 593.533 1515.33 592.459 1515.33 591.681C1515.38 592.708 1515.43 593.87 1515.46 594.664C1515.64 596.905 1516.06 599.372 1516.9 600.212C1518.15 601.476 1517.21 600.738 1516.58 600.212C1519.62 604.073 1525.22 613.482 1523.38 620.222C1522.06 623.206 1518.57 630.017 1515.22 633.387C1520.8 632.966 1528.41 629.863 1536.87 630.763C1543.12 631.427 1552.36 635.085 1552.36 635.085C1552.36 635.085 1559.54 635.778 1560.41 632.615C1561.16 629.904 1555.22 628.84 1556.69 626.441C1557.65 624.874 1559.17 624.588 1560.41 625.206C1561.65 625.823 1564.04 626.802 1564.74 628.91C1565.51 631.209 1565.23 632.925 1564.12 635.085C1562.36 638.544 1559.92 638.632 1555.29 639.691C1550.02 640.897 1546.6 638.046 1541.21 637.555C1535.67 637.05 1532.49 636.945 1526.97 637.555C1518.55 638.484 1513.1 641.251 1506.12 643.498C1499.92 643.673 1487.09 643.919 1485.41 643.498C1483.74 643.076 1477.88 642.339 1475.16 642.023Z" fill="#333333"/>
<rect x="1442.63" y="639.745" width="141.474" height="46.8258" fill="#333333"/>
<rect x="1453.59" y="671.626" width="120.552" height="117.563" fill="#333333"/>
<rect x="1434.66" y="638.749" width="157.414" height="12.9518" fill="#333333"/>
<rect x="-119.559" y="618.831" width="141.474" height="53.3791" fill="#333333"/>
<rect x="-108.598" y="655.174" width="120.552" height="134.015" fill="#333333"/>
<rect x="-127.527" y="617.695" width="157.414" height="14.7644" fill="#333333"/>
<g clip-path="url(#clip1_37_2287)">
<path d="M1813.12 790.186L1812.79 671.173L1812.53 670.781C1802.78 666.035 1792.32 660.379 1786.59 650.773C1780.52 640.608 1780.8 628.036 1782.45 616.652L1782.09 616.421L1776.82 617.362C1776.49 617.262 1776.26 615.995 1776.41 615.754C1776.69 615.324 1781.94 615.11 1782.69 614.601C1782.87 614.476 1783.37 611.488 1783.2 611.133C1783.01 610.752 1776.66 607.57 1775.74 607.102C1774.14 606.286 1772.53 605.436 1770.89 604.74C1766.21 605.517 1761.59 606.642 1756.92 607.476C1756.59 607.536 1755.06 607.807 1754.92 607.675C1754.86 607.616 1754.56 606.09 1755.03 606.075L1768.36 603.251L1746.76 592.108L1733.17 594.529C1732.4 594.872 1732.01 593.137 1732.57 592.931L1743.93 590.601L1724.51 580.564C1724.09 580.425 1723.66 580.578 1723.25 580.63C1718.55 581.228 1713.58 583.033 1708.89 583.653C1708.61 583.689 1708.33 583.756 1708.05 583.682C1707.98 583.17 1707.59 582.416 1708.14 582.082L1721.41 579.281C1721.68 579.349 1721.72 579.025 1721.64 578.938C1721.53 578.825 1719.23 577.824 1718.8 577.598C1711.9 573.982 1705.01 570.355 1698.08 566.817C1693.63 567.035 1688.87 568.798 1684.49 569.227C1684.24 569.251 1683.79 569.314 1683.6 569.171C1683.46 569.075 1683.07 567.679 1683.56 567.635L1695.24 565.383L1673.61 554.051L1672.75 553.845L1659.18 556.857C1658.95 556.583 1658.66 555.461 1658.95 555.262L1670.49 552.65L1668.24 551.095C1668.59 550.52 1669.99 547.177 1670.43 547.093C1671.05 546.975 1676.91 550.72 1678.12 550.858C1682.75 550.007 1687.3 548.614 1691.95 547.908C1692.02 548.42 1692.42 549.174 1691.86 549.508L1680.49 552.323L1703.07 563.955L1703.67 563.978L1718.37 561.268C1718.64 561.665 1718.95 562.794 1718.42 562.976L1705.9 565.466L1729.34 577.56L1743.61 574.736C1743.84 575.009 1744.12 576.134 1743.84 576.33L1731.97 578.776L1732.41 579.239L1751.76 589.251C1756.36 588.71 1760.95 587.689 1765.52 586.835C1766.38 586.568 1766.76 588.379 1765.91 588.556L1754.59 590.603L1754.76 590.844L1776.19 601.908C1780.05 601.362 1783.84 600.367 1787.67 599.68C1787.98 599.626 1789.17 599.388 1789.33 599.491C1789.41 599.546 1789.96 601.029 1789.4 601.088L1779.64 602.966L1778.86 603.412L1796.03 612.253C1796.75 612.462 1797.81 612.202 1798.58 612.092C1802.78 611.499 1806.94 610.535 1811.15 610.055C1811.46 610.243 1811.65 611.468 1811.38 611.647C1807.72 612.495 1803.8 612.728 1800.13 613.482C1799.88 613.533 1798.92 613.655 1799.35 614.008L1816.18 622.763C1817.15 622.852 1818.13 622.719 1819.08 622.612C1823.33 622.137 1827.55 621.247 1831.81 620.897C1832.07 621.071 1832.43 622.596 1831.82 622.556L1819.35 624.439L1838.49 634.259C1839.77 634.218 1841.08 634.085 1842.36 633.947C1843.64 633.809 1851.81 632.55 1852.28 632.841C1852.45 632.953 1852.55 634.081 1852.39 634.308C1852.07 634.758 1842.76 635.289 1841.48 635.777L1844.35 637.416C1844.55 637.022 1844.2 636.322 1844.84 636.266L1890.56 632.141C1890.8 632.059 1891.55 632.035 1891.6 631.759C1891.63 631.622 1891.34 629.533 1891.29 629.142C1890.62 623.749 1889.97 617.692 1888.99 612.393C1888.92 612.028 1888.87 611.202 1888.54 611.054L1842.38 615.731C1841.11 616.11 1840.77 614.944 1841.42 614.113L1888.53 609.326C1888.76 609.096 1887.65 604.853 1887.89 604.175C1888.03 603.772 1890.48 603.588 1891 603.647L1891.91 608.843C1893.04 608.812 1894.2 608.764 1895.33 608.667C1910.11 607.414 1924.84 605.377 1939.62 604.076C1940.4 603.808 1940.48 605.566 1940.33 605.709C1940.25 605.788 1938.41 605.982 1938.1 606.019C1924.1 607.711 1909.99 608.741 1895.99 610.308C1895.4 610.374 1892.1 610.445 1892.01 610.877L1895.03 631.672L1943.58 627.425C1943.69 628.059 1944.07 628.826 1943.2 629.033C1928.92 630.27 1914.67 631.644 1900.41 632.979C1898.7 633.14 1896.97 633.234 1895.25 633.308C1895.27 633.662 1895.22 634.027 1895.24 634.384C1895.49 638.094 1896.28 643.118 1896.92 646.834C1896.98 647.188 1897.07 648.112 1897.34 648.258C1901.18 648.719 1905.09 648.898 1908.86 649.815C1910.92 650.318 1914.25 651.389 1915.66 653.018C1916.06 653.48 1916.43 654.592 1916.81 654.664C1920.32 654.72 1923.81 654.226 1927.3 654.007C1928.87 653.909 1930.48 653.938 1932.05 653.84C1936.58 653.554 1941.5 652.879 1945.99 652.842C1947.11 652.833 1946.65 653.652 1946.73 654.5L1916.83 656.491C1916.36 657.197 1916.11 657.976 1915.49 658.603C1912.19 661.948 1903.77 662.05 1899.34 662.618C1898.98 662.868 1899.48 665.545 1899.67 666.078L1916.64 675.027C1925.91 674.674 1935.16 673.862 1944.43 673.552C1944.37 673.931 1944.55 674.759 1944.36 675.042C1944.07 675.454 1935.55 675.618 1934.35 675.691C1928.11 676.065 1921.91 676.563 1915.66 676.842C1914.95 676.927 1914.66 678.963 1914.03 678.974C1913.34 678.987 1911.35 677.299 1910.25 677.162L1894.87 678.02L1887.55 694.338C1887.43 694.732 1888.36 694.598 1888.61 694.585C1901.18 693.934 1913.75 692.98 1926.32 692.28C1929.24 692.117 1932.47 691.853 1935.36 691.843C1935.55 691.843 1935.72 691.887 1935.88 691.971L1935.89 693.41L1886.68 696.387L1879.85 711.92L1879.84 712.317C1888.32 711.841 1896.82 711.299 1905.33 711.002C1912.57 710.614 1919.87 709.922 1927.13 709.683C1927.53 709.669 1929.15 709.618 1929.36 709.761C1929.6 709.932 1929.6 711.095 1929.36 711.261C1929.28 711.31 1927.89 711.486 1927.63 711.503C1925.8 711.624 1923.87 711.55 1922.04 711.654C1907.77 712.455 1893.55 713.356 1879.27 713.963C1878.97 713.99 1878.86 714.172 1878.71 714.392C1878.32 714.977 1877.01 718.78 1876.65 718.837C1876.14 718.704 1874.01 717.929 1873.85 717.579L1875.08 714.287L1829.29 716.73C1828.81 716 1828.66 715.041 1829.75 714.942C1832.57 714.691 1835.45 714.772 1838.28 714.612C1849.59 713.975 1860.9 713.349 1872.21 712.636C1873.44 712.559 1874.7 712.774 1875.9 712.395L1882.79 696.546L1870.58 697.364C1860.19 697.698 1849.84 698.657 1839.43 699.01C1837.93 699.061 1837.35 699.831 1837.55 697.532L1883.57 694.793L1890.82 678.312L1867.49 679.659C1866.41 680.711 1865.56 681.977 1864.43 682.996C1857.76 689.023 1848.71 687.176 1840.99 684.464C1834.51 682.189 1828.41 678.766 1822.3 675.682L1822.46 790.177H1813.12V790.186ZM1812.79 666.491V659.674C1812.79 659.338 1812.09 658.84 1812.37 657.78C1813.18 654.766 1820.53 654.623 1822.21 657.299C1822.76 658.176 1822.31 658.93 1822.29 659.83C1822.22 663.446 1822.36 667.07 1822.29 670.687L1822.45 671.188C1828.94 674.523 1835.43 678.227 1842.34 680.663C1847.48 682.478 1856.83 684.85 1861.23 680.451C1861.39 680.287 1861.59 680.242 1861.32 680.04L1846.5 680.793C1846.25 680.724 1846.15 679.428 1846.42 679.163C1852.09 678.728 1857.79 678.67 1863.44 678.071C1865.85 675.134 1867.58 671.341 1868.68 667.714C1868.92 666.933 1870.09 662.68 1869.82 662.244C1867.45 661.849 1865.06 661.467 1862.71 660.897C1861.48 660.826 1853.22 662.242 1852.79 661.986C1852.42 661.764 1852.26 660.423 1852.73 660.271L1859.18 659.591L1857.58 657.67C1856.62 656.093 1856.97 654.375 1858.12 653.02C1858.34 652.762 1859.04 652.336 1859.02 652.282C1858.92 652.054 1858.71 652.061 1858.5 652.069C1854.8 652.236 1851.07 652.962 1847.4 652.833C1847.39 652.179 1846.89 651.423 1847.79 651.216C1851.28 650.917 1854.81 650.824 1858.28 650.39C1858.51 650.362 1858.76 650.308 1858.53 650.065L1850.4 645.965C1845.63 646.208 1840.88 647.233 1836.13 647.742C1835.92 647.763 1835.16 647.817 1835.09 647.752C1835.03 647.693 1834.72 646.167 1835.2 646.152L1847.38 644.314L1832.69 636.756C1829.73 637.043 1826.78 637.547 1823.83 637.883C1823.12 637.963 1818.37 638.586 1818.14 638.415C1817.93 638.257 1817.77 637.135 1817.89 636.94C1821.69 636.26 1825.59 635.974 1829.43 635.435L1829.67 635.111L1811.03 625.452C1808.24 625.556 1805.46 626.196 1802.68 626.545C1802.05 626.625 1797.91 627.202 1797.72 627.041C1797.63 626.965 1797.32 625.498 1797.82 625.444C1800.79 624.955 1803.81 624.726 1806.78 624.243C1806.95 624.215 1808.22 624.133 1807.87 623.775L1791.27 615.195C1790.66 615.005 1787.88 615.393 1787.17 615.603C1786.97 615.664 1786.77 615.705 1786.64 615.892C1784.82 627.322 1784.21 640.437 1791.11 650.339C1796.38 657.892 1804.82 662.334 1812.79 666.483L1812.79 666.491ZM1893.77 648.093L1891.7 633.825L1845.74 637.91C1846.15 638.341 1846.85 638.691 1847.38 638.98C1850.19 640.517 1853.12 641.932 1856 643.315C1860.29 642.996 1864.56 642.091 1868.86 641.85C1868.72 642.163 1869.1 643.208 1869.02 643.323C1868.72 643.74 1859.06 644.396 1858.86 644.89L1867.36 649.317C1876.1 647.954 1884.93 648.044 1893.78 648.093H1893.77ZM1894.74 655.633C1894.84 654.073 1894.27 652.56 1894.24 650.994C1894.21 650.855 1894.13 650.789 1894 650.746C1893.82 650.687 1892.26 650.572 1891.9 650.553C1888.32 650.359 1884.63 650.613 1881.08 650.73C1877.87 650.835 1874.63 650.743 1871.48 651.382L1877.27 654.531L1882.23 656.956C1886.41 656.647 1890.57 656.092 1894.74 655.633H1894.74ZM1913.77 654.993C1914.09 654.712 1912.63 653.853 1912.47 653.759C1911.31 653.071 1909.93 652.681 1908.63 652.345C1905.08 651.426 1901.2 651.078 1897.54 650.888L1898.69 660.088C1898.97 660.374 1905.67 659.541 1906.6 659.389C1907.57 659.228 1913.59 657.805 1913.61 656.883C1913.61 656.764 1913.23 656.547 1913.06 656.65L1899.26 657.634C1898.51 657.734 1898.23 656.228 1898.81 656.013L1913.77 654.994L1913.77 654.993ZM1870.47 658.25C1870.56 658.101 1870.79 656.586 1870.5 656.387C1869.09 655.959 1864.51 652.801 1863.4 652.892C1862.9 652.933 1861.57 653.587 1861.1 653.876C1858.12 655.702 1859.86 657.12 1862.26 658.076C1864.11 658.812 1865.16 658.95 1867.13 658.771C1867.58 658.73 1870.38 658.393 1870.47 658.25ZM1895.42 660.251C1895.48 659.756 1895.22 657.424 1894.82 657.304L1885.09 658.444L1888.79 660.404C1891 660.42 1893.22 660.479 1895.42 660.251ZM1891.79 676.49L1894.76 669.046L1883 662.915C1880.03 662.948 1877.04 662.63 1874.1 662.626C1873.3 665.756 1872.61 668.916 1871.44 671.953C1870.66 673.979 1869.65 675.883 1868.69 677.824L1891.78 676.489L1891.79 676.49ZM1907.05 675.691L1906.68 675.166C1903.99 674.184 1900.97 671.728 1898.37 670.838C1898.19 670.776 1898.01 670.738 1897.81 670.749L1895.42 676.101C1895.58 676.33 1895.71 676.356 1895.98 676.354C1897 676.348 1898.38 676.077 1899.43 676.021C1901.97 675.883 1904.52 675.81 1907.05 675.689L1907.05 675.691Z" fill="#333333"/>
</g>
<rect x="1621.96" y="741.367" width="144.463" height="16.937" fill="#333333"/>
<rect x="-6.31641" y="744.356" width="98.6331" height="16.937" transform="rotate(2.22182 -6.31641 744.356)" fill="#333333"/>
<rect x="620.055" y="742.363" width="247.332" height="16.937" transform="rotate(1.21275 620.055 742.363)" fill="#333333"/>
<rect x="944.844" y="742.363" width="247.332" height="16.937" transform="rotate(1.21275 944.844 742.363)" fill="#333333"/>
<rect x="1101.26" y="740.371" width="247.332" height="16.937" transform="rotate(1.21275 1101.26 740.371)" fill="#333333"/>
<g clip-path="url(#clip2_37_2287)">
<path d="M128.933 747.009V749.537C129.07 749.77 129.072 750.027 129.19 750.284C129.479 750.91 131.02 752.3 131.722 752.278C132.05 752.267 133.069 751.204 133.314 750.91C134.551 749.429 134.452 748.168 134.825 746.401C135.37 743.82 136.995 738.606 138.666 736.641C140.716 734.232 142.843 734.096 145.662 733.31C148.185 732.606 150.913 731.4 153.458 730.929C154.208 730.789 154.44 730.769 154.477 731.669C154.594 734.478 153.602 737.404 153.446 740.134C153.381 741.26 153.946 742.257 154.398 743.269C155.181 745.025 156.316 747.434 157.567 748.869C158.083 749.461 158.745 749.991 159.277 750.577C160.974 752.447 162.548 754.431 164.323 756.232C165.593 756.449 166.965 756.508 168.264 756.524C168.39 756.525 168.594 756.476 168.672 756.6C169.636 756.518 170.776 756.711 171.717 756.6C171.771 756.594 172.111 756.51 172.165 756.49C172.967 756.195 173.302 754.606 173.17 753.845C172.988 752.797 170.841 751.151 169.813 751.102C169.632 751.094 169.48 751.177 169.306 751.176C168.3 751.173 168.081 751.27 167.332 750.543C166.278 749.518 164.992 748.005 164.028 746.862C162.922 745.552 162.026 744.696 162.967 742.898C163.933 741.053 165.81 738.693 167.115 737.014C168.236 735.571 169.408 734.514 170.17 732.786C170.791 731.379 170.853 730.037 172.515 729.409C173.856 728.901 174.551 729.569 175.843 729.543C177.757 729.502 179.964 728.959 181.931 728.797C185.198 728.529 189.066 728.348 192.332 728.496C193.615 728.554 195.909 729.005 197.066 729.557C197.53 729.778 197.314 730.145 197.257 730.605C196.346 737.854 193.6 745.82 194.15 753.141C194.26 754.6 194.604 755.014 196.045 755.186C197.539 755.363 199.885 755.152 201.381 754.879C202.459 754.682 202.386 754.551 202.67 753.493C203.075 751.984 203.043 750.913 201.531 750.141C201.191 749.967 200.082 749.646 199.888 749.444C199.61 749.155 200.042 748.011 200.164 747.64C201.626 743.214 204.323 737.947 206.819 734.006C208.439 731.449 209.236 731.474 212.17 731.11C213.199 730.983 214.695 731.014 215.631 730.783C216.068 730.675 216.641 730.207 216.988 730.208C217.358 730.208 218.55 731.17 218.962 731.43C220.131 732.168 221.458 732.81 222.371 733.891C223.414 735.127 224.099 736.219 225.343 737.384C226.776 738.725 228.266 740.088 229.726 741.398C232.106 743.534 235.013 744.998 237.487 747.011C238.851 748.121 241.539 751.196 242.854 751.749C243.325 751.947 243.847 752.011 244.313 752.222C245.392 752.712 246.229 753.709 247.406 754.181C249.024 754.831 252.228 754.686 253.955 754.345C254.613 754.215 255.027 754.111 255.414 753.501C256.089 752.44 255.691 750.997 254.611 750.39C252.975 749.47 252.567 749.77 250.873 749.603C249.866 749.503 249.344 748.926 248.629 748.274C244.487 744.498 239.06 738.262 236.771 733.157C236.461 732.467 235.445 730.26 235.37 729.652C235.226 728.475 235.412 726.875 235.376 725.633C235.294 722.871 235.028 720.079 234.924 717.313C234.888 716.377 234.745 714.826 234.851 713.962C234.915 713.441 235.694 711.77 235.954 711.2C236.578 709.832 237.557 707.679 238.823 706.861C239.93 706.147 241.029 705.102 242.34 704.805C244.777 704.252 246.808 705.73 248.815 703.406C249.438 702.684 251.239 699.501 251.327 698.629C251.439 697.504 249.681 696.089 249.002 695.269C246.998 692.852 246.642 690.298 243.668 688.565C242.823 688.073 241.297 687.664 240.98 686.646C240.694 685.725 240.987 683.776 241.021 682.746C241.035 682.326 241.061 681.795 240.64 681.559C240.404 681.428 240.102 681.481 239.908 681.327C239.731 681.186 239.421 680.697 239.308 680.476C239.021 680.275 235.968 683.985 235.634 684.343C233.328 686.809 232.08 687.172 229.182 688.59C224.989 690.64 222.262 694.438 217.414 695.62C214.555 696.317 211.418 697.001 208.649 695.663C200.319 694.362 191.961 692.96 183.565 692.074C176.892 691.37 170.203 690.763 163.521 691.638C161.034 691.964 157.517 693.107 155.178 692.161C153.51 691.486 149.79 688.073 148.877 686.499C146.065 681.655 143.876 673.146 144.617 667.588C145.097 663.977 149.56 658.888 153.504 660.012C155.828 660.675 156.69 663.232 159.392 662.676C159.934 662.564 160.443 662.038 160.502 661.482C160.629 660.295 160.076 657.614 159.449 656.589C157.998 654.214 153.496 652.499 150.81 652.749C150.165 652.809 149.288 652.972 148.6 653.064C146.294 653.373 143.494 655.739 141.661 657.046C140.606 657.799 140.329 657.581 139.454 658.777C134.586 665.425 134.397 674.469 137.273 681.981C137.862 683.519 138.62 685.601 139.37 687.019C140.252 688.688 141.15 690.398 142.07 692.048C143.06 693.826 146.15 697.993 146.371 699.711C146.495 700.678 146.157 701.208 146.028 702.081C145.881 703.076 145.983 704.162 145.761 705.159C145.269 707.366 143.607 708.978 143.564 711.367C143.533 713.118 143.326 715.086 143.113 716.856C143.039 717.466 142.946 718.538 142.735 719.08C142.518 719.639 141.884 720.206 141.578 720.746C141.32 721.198 141.241 721.671 141.021 722.122C140.579 723.027 139.526 723.783 138.812 724.52C138.308 725.041 137.914 725.666 137.329 726.159C136.655 726.727 136.024 726.832 135.533 727.631C132.953 731.835 133.059 737.148 131.016 741.621L128.935 747.009H128.933Z" fill="#333333"/>
</g>
</g>
<defs>
<clipPath id="clip0_37_2287">
<rect width="1920" height="1080" fill="white"/>
</clipPath>
<clipPath id="clip1_37_2287">
<rect width="287.929" height="243.096" fill="white" transform="translate(1658.83 547.09)"/>
</clipPath>
<clipPath id="clip2_37_2287">
<rect width="126.812" height="103.91" fill="white" transform="matrix(-1 0 0 1 255.746 652.724)"/>
</clipPath>
</defs>
</svg>
